<svg width="512" height="512" viewBox="0 0 512 512" fill="none" xmlns="http://www.w3.org/2000/svg">
  <defs>
    <linearGradient id="bg" x1="64" y1="52" x2="448" y2="458" gradientUnits="userSpaceOnUse">
      <stop stop-color="#112A4D" />
      <stop offset="0.55" stop-color="#155BC8" />
      <stop offset="1" stop-color="#1DA6E7" />
    </linearGradient>
    <linearGradient id="panelBack" x1="112" y1="96" x2="340" y2="376" gradientUnits="userSpaceOnUse">
      <stop stop-color="white" stop-opacity="0.26" />
      <stop offset="1" stop-color="white" stop-opacity="0.1" />
    </linearGradient>
    <linearGradient id="panelFront" x1="182" y1="132" x2="392" y2="410" gradientUnits="userSpaceOnUse">
      <stop stop-color="#FDFEFF" />
      <stop offset="1" stop-color="#DCEBFF" />
    </linearGradient>
    <linearGradient id="panelTop" x1="194" y1="148" x2="380" y2="210" gradientUnits="userSpaceOnUse">
      <stop stop-color="#EAF4FF" />
      <stop offset="1" stop-color="#D8E9FF" />
    </linearGradient>
    <linearGradient id="accent" x1="208" y1="220" x2="352" y2="364" gradientUnits="userSpaceOnUse">
      <stop stop-color="#0D60D4" />
      <stop offset="1" stop-color="#22B6F5" />
    </linearGradient>
    <filter id="shadow" x="74" y="86" width="354" height="336" filterUnits="userSpaceOnUse" color-interpolation-filters="sRGB">
      <feFlood flood-opacity="0" result="BackgroundImageFix" />
      <feColorMatrix in="SourceAlpha" type="matrix" values="0 0 0 0 0 0 0 0 0 0 0 0 0 0 0 0 0 0 127 0" result="hardAlpha" />
      <feOffset dy="20" />
      <feGaussianBlur stdDeviation="18" />
      <feColorMatrix type="matrix" values="0 0 0 0 0.0313726 0 0 0 0 0.137255 0 0 0 0 0.301961 0 0 0 0.28 0" />
      <feBlend mode="normal" in2="BackgroundImageFix" result="effect1_dropShadow_1_1" />
      <feBlend mode="normal" in="SourceGraphic" in2="effect1_dropShadow_1_1" result="shape" />
    </filter>
  </defs>

  <rect x="24" y="24" width="464" height="464" rx="108" fill="url(#bg)" />
  <circle cx="142" cy="112" r="116" fill="white" fill-opacity="0.08" />
  <circle cx="402" cy="418" r="118" fill="white" fill-opacity="0.08" />
  <path d="M118 118C172 72 266 74 326 122" stroke="white" stroke-opacity="0.18" stroke-width="16" stroke-linecap="round" />

  <g filter="url(#shadow)">
    <rect x="112" y="132" width="186" height="212" rx="38" fill="url(#panelBack)" stroke="white" stroke-opacity="0.18" stroke-width="2" />
    <rect x="112" y="132" width="186" height="48" rx="38" fill="white" fill-opacity="0.08" />
    <circle cx="142" cy="156" r="6" fill="white" fill-opacity="0.75" />
    <circle cx="162" cy="156" r="6" fill="white" fill-opacity="0.55" />
    <circle cx="182" cy="156" r="6" fill="white" fill-opacity="0.4" />

    <rect x="198" y="170" width="198" height="220" rx="40" fill="url(#panelFront)" />
    <rect x="198" y="170" width="198" height="52" rx="40" fill="url(#panelTop)" />
    <circle cx="230" cy="196" r="6" fill="#7AAAF0" />
    <circle cx="250" cy="196" r="6" fill="#A0C3F8" />
    <circle cx="270" cy="196" r="6" fill="#C1D9FD" />
    <rect x="292" y="188" width="70" height="16" rx="8" fill="#BDD6FA" />

    <rect x="238" y="246" width="74" height="90" rx="24" fill="url(#accent)" />
    <rect x="282" y="278" width="74" height="90" rx="24" fill="white" stroke="#B8D8FF" stroke-width="10" />
    <circle cx="276" cy="292" r="14" fill="white" fill-opacity="0.95" />
    <circle cx="320" cy="324" r="14" fill="#1B8BE7" />

    <path d="M252 372H338" stroke="#A7CAF8" stroke-width="12" stroke-linecap="round" />
    <path d="M252 398H322" stroke="#C5DDFB" stroke-width="12" stroke-linecap="round" />
  </g>

  <rect x="350" y="118" width="54" height="54" rx="18" fill="white" fill-opacity="0.18" />
  <path d="M366 144H389" stroke="white" stroke-width="12" stroke-linecap="round" />
  <path d="M377.5 132.5V155.5" stroke="white" stroke-width="12" stroke-linecap="round" />
</svg>
